<svg width="780" height="685" viewBox="0 0 780 685" fill="none" xmlns="http://www.w3.org/2000/svg">
<path d="M239.825 286.846H140.185V263.728H239.825V286.846Z" fill="#ECECEC"/>
<mask id="mask0_1212_89" style="mask-type:luminance" maskUnits="userSpaceOnUse" x="0" y="0" width="780" height="686">
<path d="M0 0.926302H780V685.007H0V0.926302Z" fill="white"/>
</mask>
<g mask="url(#mask0_1212_89)">
<path d="M197.692 311.196C197.681 311.187 197.672 311.046 197.661 310.776C197.653 310.467 197.642 310.077 197.628 309.59C197.611 308.502 197.586 306.985 197.553 305.041C197.514 301.05 197.457 295.312 197.383 288.078L197.692 288.349C174.941 288.389 138.76 288.452 98.0582 288.523C98.2813 288.325 97.5449 288.968 98.5589 288.078V288.084V288.096V288.119V288.166V288.259V288.445V288.816V289.559V291.042C98.5589 292.028 98.5589 293.011 98.5589 293.99C98.5574 295.951 98.5574 297.895 98.5558 299.825C98.5543 303.684 98.5511 307.479 98.548 311.196L98.0519 310.761C126.425 310.839 151.251 310.909 169.058 310.958C177.929 311.012 185.045 311.053 190.017 311.083C192.435 311.107 194.329 311.127 195.685 311.14C196.295 311.151 196.783 311.161 197.167 311.168C197.505 311.177 197.681 311.187 197.692 311.196C197.703 311.206 197.547 311.215 197.23 311.225C196.862 311.232 196.394 311.241 195.809 311.252C194.48 311.266 192.622 311.285 190.25 311.31C185.304 311.339 178.227 311.381 169.405 311.433C151.512 311.484 126.564 311.552 98.0519 311.631L97.5559 311.633L97.5543 311.196C97.5512 307.479 97.5496 303.684 97.5465 299.825C97.5465 297.895 97.5449 295.951 97.5449 293.99C97.5449 293.011 97.5449 292.028 97.5434 291.042V289.559V288.816V288.445V288.259V288.166V288.119V288.096V288.084V288.078C98.5589 287.188 97.8289 287.831 98.0582 287.632C138.76 287.704 174.941 287.767 197.692 287.808H198.004L198.001 288.078C197.928 295.38 197.87 301.173 197.831 305.202C197.798 307.121 197.773 308.617 197.755 309.691C197.742 310.158 197.731 310.531 197.723 310.83C197.713 311.081 197.703 311.206 197.692 311.196Z" fill="#E1E1E1"/>
<path d="M619.977 75.5594H520.336V52.4416H619.977V75.5594Z" fill="#ECECEC"/>
<path d="M578.169 99.1649C578.159 99.1553 578.149 99.0144 578.138 98.7449C578.13 98.4357 578.12 98.0457 578.105 97.5587C578.088 96.471 578.063 94.9537 578.031 93.0095C577.992 89.0186 577.934 83.2805 577.861 76.0471L578.169 76.318C555.418 76.3577 519.236 76.4206 478.534 76.4917C478.758 76.2933 478.022 76.9364 479.036 76.0471V76.0526V76.0649V76.0881V76.1346V76.2277V76.4137V76.7845V77.5274V79.0105C479.036 79.997 479.036 80.9793 479.035 81.9589C479.035 83.9195 479.035 85.8636 479.033 87.7941C479.03 91.6523 479.028 95.4476 479.025 99.1649L478.529 98.7285C506.902 98.8078 531.728 98.8776 549.536 98.9268C558.406 98.9802 565.523 99.0226 570.494 99.0513C572.912 99.076 574.806 99.0951 576.162 99.1088C576.772 99.1198 577.26 99.1293 577.644 99.1362C577.981 99.1458 578.159 99.1553 578.169 99.1649C578.18 99.1745 578.024 99.1841 577.708 99.1936C577.34 99.2005 576.872 99.2101 576.287 99.221C574.957 99.2347 573.099 99.2538 570.727 99.2785C565.781 99.3072 558.704 99.3496 549.882 99.4016C531.989 99.4522 507.04 99.5206 478.529 99.6L478.033 99.6013L478.031 99.1649C478.028 95.4476 478.027 91.6523 478.024 87.7941C478.024 85.8636 478.022 83.9195 478.022 81.9589C478.021 80.9793 478.021 79.997 478.021 79.0105V77.5274V76.7845V76.4137V76.2277V76.1346V76.0881V76.0649V76.0526V76.0471C479.036 75.1564 478.306 75.8008 478.534 75.6011C519.236 75.6722 555.418 75.7351 578.169 75.7762H578.48L578.478 76.0471C578.405 83.349 578.347 89.1418 578.308 93.1696C578.276 95.0892 578.251 96.5859 578.232 97.6599C578.219 98.1265 578.208 98.5 578.201 98.7982C578.19 99.05 578.18 99.1745 578.169 99.1649Z" fill="#E1E1E1"/>
<path d="M687.558 361.405H522.302V159.621H687.558V361.405Z" fill="white"/>
<path d="M687.558 361.405C687.558 361.405 687.544 361.071 687.538 360.433C687.533 359.783 687.525 358.837 687.517 357.594C687.507 355.087 687.493 351.393 687.474 346.589C687.452 336.974 687.421 322.93 687.38 305.157C687.337 269.639 687.277 219.233 687.205 159.621L687.558 159.93C637.677 159.939 581.519 159.95 522.321 159.961H522.303L522.691 159.621C522.664 235.132 522.639 304.996 522.619 361.405L522.303 361.129C572.419 361.189 613.694 361.238 642.455 361.273C656.848 361.304 668.106 361.327 675.783 361.344C679.613 361.357 682.547 361.368 684.538 361.375C686.521 361.385 687.558 361.405 687.558 361.405C687.558 361.405 686.566 361.426 684.605 361.435C682.627 361.442 679.713 361.453 675.909 361.467C668.25 361.483 657.015 361.507 642.653 361.538C613.845 361.572 572.502 361.621 522.303 361.682L521.987 361.683V361.405C521.967 304.996 521.941 235.132 521.914 159.621V159.279H522.303H522.321C581.519 159.29 637.677 159.3 687.558 159.31H687.912L687.911 159.621C687.839 219.316 687.778 269.792 687.736 305.359C687.695 323.102 687.664 337.123 687.642 346.722C687.624 351.498 687.61 355.171 687.599 357.663C687.591 358.892 687.583 359.826 687.578 360.468C687.572 361.095 687.558 361.405 687.558 361.405Z" fill="#E1E1E1"/>
<path d="M667.713 273.571H538.956V266.298H667.713V273.571Z" fill="#F5F5F5"/>
<path d="M641.102 276.687H568.562V263.543H641.102V276.687Z" fill="#F5F5F5"/>
<path d="M593.352 245.729C597.152 245.729 598.985 243.646 598.985 239.837V218.406C598.985 214.597 597.152 212.513 593.283 212.513H587.583V245.729H593.352ZM593.419 208.287C600.818 208.287 604.213 212.216 604.213 218.644V239.657C604.213 246.028 600.818 249.956 593.419 249.956H582.289V208.287H593.419Z" fill="#E1E1E1"/>
<path d="M613.984 240.134C613.984 243.945 615.817 246.146 619.617 246.146C623.488 246.146 625.252 243.945 625.252 240.134V218.108C625.252 214.358 623.488 212.097 619.617 212.097C615.817 212.097 613.984 214.358 613.984 218.108V240.134ZM608.758 218.346C608.758 211.977 612.355 207.87 619.617 207.87C626.948 207.87 630.545 211.977 630.545 218.346V239.896C630.545 246.206 626.948 250.374 619.617 250.374C612.355 250.374 608.758 246.206 608.758 239.896V218.346Z" fill="#E1E1E1"/>
<path d="M596.773 333.112H591.001V287.679H596.773V333.112Z" fill="#E1E1E1"/>
<path d="M610.242 333.112V292.288H600.695V287.68H625.56V292.288H616.014V333.112H610.242Z" fill="#E1E1E1"/>
<path d="M543.256 211.737L549.522 231.594L555.038 226.104L564.227 239.808L558.14 216.231L552.45 221.894L543.256 211.737Z" fill="#F5F5F5"/>
<path d="M666.29 209.733L660.024 229.591L654.508 224.1L645.319 237.805L651.406 214.228L657.096 219.891L666.29 209.733Z" fill="#F5F5F5"/>
<path d="M604.049 169.429L595.889 193.119L605.504 190.647L604.81 209.733L615.875 182.367L605.955 184.917L604.049 169.429Z" fill="#E1E1E1"/>
<path d="M640.258 244.909H638.765V191.45H572.998V244.909H571.505V190.139H640.258V244.909Z" fill="#E1E1E1"/>
<path d="M640.258 341.466H571.505V286.696H572.998V340.157H638.765V286.696H640.258V341.466Z" fill="#E1E1E1"/>
<path d="M563.612 294.88H558.692C555.957 294.88 553.742 292.936 553.742 290.539V249.251C553.742 246.854 555.957 244.91 558.692 244.91H563.612C566.345 244.91 568.562 246.854 568.562 249.251V290.539C568.562 292.936 566.345 294.88 563.612 294.88Z" fill="#E1E1E1"/>
<path d="M650.973 294.88H646.053C643.319 294.88 641.103 292.936 641.103 290.539V249.251C641.103 246.854 643.319 244.91 646.053 244.91H650.973C653.707 244.91 655.923 246.854 655.923 249.251V290.539C655.923 292.936 653.707 294.88 650.973 294.88Z" fill="#E1E1E1"/>
<path d="M553.741 276.22H547.638V262.3H553.741V276.22Z" fill="#ECECEC"/>
<path d="M661.908 276.22H655.805V262.3H661.908V276.22Z" fill="#ECECEC"/>
<path d="M552.832 156.655L516.166 181.344L511.11 175.567L547.776 150.879L552.832 156.655Z" fill="#E1E1E1"/>
<path d="M697.647 346.588L660.98 371.276L655.924 365.5L692.589 340.812L697.647 346.588Z" fill="#E1E1E1"/>
<path d="M176.109 115.081C176.098 115.071 176.088 114.931 176.077 114.661C176.07 114.352 176.059 113.962 176.046 113.475C176.028 112.387 176.003 110.87 175.97 108.926C175.931 104.935 175.873 99.1967 175.8 91.9632L176.109 92.2341C153.358 92.2738 117.177 92.3367 76.4746 92.4079C76.6977 92.2095 75.9614 92.8525 76.9754 91.9632V91.9687V91.981V92.0043V92.0508V92.1438V92.3299V92.702V93.4449V94.9267C76.9754 95.9131 76.9754 96.8968 76.9754 97.875C76.9738 99.8356 76.9738 101.78 76.9738 103.71C76.9707 107.568 76.9676 111.364 76.9644 115.081L76.4684 114.646C104.842 114.724 129.669 114.794 147.475 114.843C156.345 114.896 163.462 114.939 168.433 114.967C170.851 114.992 172.747 115.011 174.101 115.025C174.711 115.036 175.199 115.045 175.583 115.052C175.921 115.062 176.098 115.071 176.109 115.081C176.12 115.091 175.964 115.1 175.647 115.11C175.279 115.117 174.811 115.126 174.226 115.137C172.897 115.151 171.039 115.17 168.666 115.195C163.721 115.223 156.643 115.266 147.821 115.318C129.928 115.368 104.98 115.437 76.4684 115.516L75.9723 115.517L75.9707 115.081C75.9692 111.364 75.966 107.568 75.9629 103.71C75.9629 101.78 75.9614 99.8356 75.9614 97.875C75.9614 96.8968 75.9614 95.9131 75.9614 94.9267L75.9598 93.4449V92.702V92.3299V92.1438V92.0508V92.0043V91.981V91.9687V91.9632C76.9769 91.0725 76.2453 91.7169 76.4746 91.5172C117.177 91.5883 153.358 91.6513 176.109 91.6923H176.421L176.418 91.9632C176.344 99.2651 176.287 105.058 176.248 109.087C176.215 111.005 176.19 112.502 176.173 113.576C176.159 114.043 176.148 114.417 176.14 114.714C176.129 114.966 176.12 115.091 176.109 115.081Z" fill="#E1E1E1"/>
<path d="M189.619 91.9628C189.606 91.9519 189.594 91.8028 189.58 91.5223C189.57 91.1912 189.556 90.789 189.541 90.2978C189.519 89.1608 189.489 87.6135 189.45 85.6625C189.403 81.6086 189.336 75.8842 189.254 68.845L189.619 69.1652C174.109 69.1966 153.01 69.2418 129.755 69.2897C129.298 69.6878 130.368 68.7479 130.259 68.8464V68.8532V68.8655V68.8888V68.9367V69.0311V69.2213V69.6016V70.3596L130.258 71.8714C130.258 72.8756 130.258 73.8757 130.256 74.869C130.256 76.8556 130.253 78.8189 130.253 80.7535C130.245 84.6199 130.241 88.37 130.234 91.9628L129.752 91.5387C147.034 91.6208 161.913 91.6906 172.577 91.7398C177.836 91.7891 182.053 91.8288 185.053 91.8575C186.454 91.8794 187.569 91.8972 188.416 91.9108C189.188 91.9286 189.598 91.9451 189.619 91.9628C189.639 91.9806 189.266 91.997 188.531 92.0148C187.711 92.0285 186.628 92.0463 185.268 92.0682C182.295 92.0969 178.117 92.1366 172.903 92.1858C162.158 92.2351 147.167 92.3049 129.752 92.387L129.269 92.3883L129.267 91.9628C129.262 88.37 129.256 84.6199 129.25 80.7535C129.248 78.8189 129.247 76.8556 129.245 74.869C129.244 73.8757 129.244 72.8756 129.244 71.8714V70.3596V69.6016V69.2213V69.0311V68.9367V68.8888V68.8655V68.8532V68.8464C129.131 68.9408 130.206 68.0009 129.755 68.399C153.01 68.4482 174.109 68.492 189.619 68.5249H189.987L189.984 68.845C189.901 75.9663 189.834 81.7564 189.787 85.8567C189.748 87.7776 189.719 89.3004 189.697 90.4209C189.669 91.4539 189.644 91.9847 189.619 91.9628Z" fill="#E1E1E1"/>
<path d="M149.471 506.623C149.46 506.614 149.451 506.473 149.44 506.203C149.432 505.894 149.421 505.504 149.409 505.017C149.39 503.929 149.365 502.412 149.333 500.468C149.294 496.477 149.236 490.739 149.163 483.505L149.471 483.776C126.72 483.816 90.5393 483.879 49.8373 483.95C50.0604 483.752 49.3241 484.395 50.3381 483.505V483.511V483.523V483.546V483.593V483.686V483.872V484.244V484.987V486.469C50.3381 487.455 50.3381 488.439 50.3381 489.417C50.3365 491.378 50.3365 493.322 50.335 495.252C50.3334 499.111 50.3303 502.906 50.3272 506.623L49.8311 506.188C78.2044 506.267 103.032 506.336 120.838 506.385C129.708 506.438 136.824 506.481 141.796 506.51C144.214 506.534 146.108 506.553 147.464 506.567C148.074 506.578 148.562 506.588 148.946 506.594C149.284 506.604 149.46 506.614 149.471 506.623C149.482 506.633 149.326 506.642 149.01 506.652C148.641 506.659 148.173 506.668 147.588 506.679C146.259 506.693 144.401 506.712 142.029 506.737C137.083 506.765 130.006 506.808 121.184 506.861C103.291 506.91 78.3432 506.979 49.8311 507.058L49.335 507.061L49.3334 506.623C49.3319 502.906 49.3288 499.111 49.3256 495.252C49.3256 493.322 49.3241 491.378 49.3241 489.417C49.3241 488.439 49.3241 487.455 49.3241 486.469L49.3225 484.987V484.244V483.872V483.686V483.593V483.546V483.523V483.511V483.505C50.3396 482.615 49.608 483.259 49.8373 483.059C90.5393 483.13 126.72 483.195 149.471 483.234H149.783L149.78 483.505C149.707 490.809 149.649 496.6 149.61 500.629C149.577 502.547 149.553 504.044 149.535 505.118C149.521 505.585 149.51 505.96 149.503 506.256C149.492 506.508 149.482 506.633 149.471 506.623Z" fill="#E1E1E1"/>
<path d="M162.981 483.505C162.969 483.494 162.957 483.345 162.944 483.065C162.933 482.733 162.919 482.331 162.903 481.84C162.882 480.702 162.852 479.156 162.813 477.205C162.766 473.151 162.699 467.426 162.616 460.387L162.981 460.707C147.472 460.739 126.373 460.784 103.118 460.832C102.661 461.23 103.731 460.29 103.622 460.389V460.395V460.408V460.431V460.479V460.573V460.763V461.144V461.902L103.62 463.414C103.62 464.418 103.62 465.418 103.62 466.411C103.619 468.398 103.617 470.361 103.616 472.296C103.609 476.162 103.603 479.912 103.597 483.505L103.113 483.081C120.397 483.162 135.276 483.233 145.94 483.282C151.199 483.331 155.415 483.371 158.415 483.4C159.816 483.422 160.932 483.439 161.779 483.453C162.551 483.471 162.961 483.487 162.981 483.505C163.002 483.523 162.629 483.539 161.894 483.557C161.074 483.571 159.991 483.589 158.631 483.61C155.657 483.639 151.48 483.679 146.266 483.728C135.521 483.777 120.528 483.847 103.113 483.929L102.631 483.931L102.63 483.505C102.625 479.912 102.619 476.162 102.613 472.296C102.611 470.361 102.609 468.398 102.608 466.411C102.606 465.418 102.606 464.418 102.606 463.414V461.902V461.144V460.763V460.573V460.479V460.431V460.408V460.395V460.389C102.494 460.483 103.569 459.543 103.118 459.941C126.373 459.99 147.472 460.034 162.981 460.067H163.35L163.347 460.387C163.264 467.509 163.197 473.299 163.15 477.399C163.111 479.32 163.081 480.843 163.059 481.963C163.031 482.997 163.006 483.527 162.981 483.505Z" fill="#E1E1E1"/>
<path d="M649.191 506.144C649.18 506.134 649.171 505.993 649.16 505.724C649.152 505.414 649.141 505.024 649.129 504.537C649.11 503.45 649.085 501.932 649.052 499.988C649.013 495.997 648.956 490.259 648.882 483.026L649.191 483.297C626.44 483.336 590.257 483.399 549.557 483.47C549.782 483.272 549.044 483.915 550.058 483.026V483.031V483.044V483.067V483.113V483.206V483.392V483.765V484.507V485.989C550.058 486.976 550.058 487.959 550.058 488.938C550.056 490.898 550.056 492.842 550.055 494.773C550.053 498.631 550.05 502.426 550.047 506.144L549.551 505.709C577.924 505.788 602.751 505.856 620.557 505.906C629.427 505.959 636.544 506.001 641.516 506.03C643.934 506.055 645.829 506.074 647.183 506.088C647.793 506.098 648.282 506.108 648.665 506.115C649.002 506.124 649.18 506.134 649.191 506.144C649.202 506.153 649.046 506.163 648.729 506.172C648.361 506.179 647.893 506.189 647.308 506.2C645.979 506.213 644.121 506.233 641.748 506.257C636.803 506.286 629.725 506.328 620.904 506.38C603.01 506.431 578.063 506.499 549.551 506.579L549.055 506.58L549.053 506.144C549.052 502.426 549.048 498.631 549.045 494.773C549.045 492.842 549.044 490.898 549.044 488.938C549.044 487.959 549.044 486.976 549.044 485.989L549.042 484.507V483.765V483.392V483.206V483.113V483.067V483.044V483.031V483.026C550.058 482.135 549.328 482.78 549.557 482.58C590.257 482.651 626.44 482.715 649.191 482.755H649.503L649.5 483.026C649.427 490.328 649.369 496.12 649.33 500.15C649.297 502.068 649.272 503.565 649.255 504.639C649.241 505.105 649.23 505.479 649.222 505.777C649.211 506.029 649.202 506.153 649.191 506.144Z" fill="#E1E1E1"/>
<path d="M662.701 483.025C662.689 483.014 662.676 482.865 662.662 482.585C662.653 482.254 662.639 481.852 662.623 481.36C662.601 480.222 662.572 478.676 662.533 476.725C662.486 472.671 662.419 466.947 662.336 459.908L662.701 460.228C647.192 460.259 626.093 460.304 602.838 460.352C602.381 460.75 603.451 459.81 603.342 459.909V459.916V459.928V459.951V459.999V460.094V460.284V460.664V461.422L603.34 462.934C603.34 463.938 603.34 464.938 603.34 465.932C603.339 467.918 603.335 469.881 603.335 471.816C603.329 475.682 603.323 479.433 603.317 483.025L602.835 482.601C620.116 482.683 634.996 482.753 645.66 482.802C650.919 482.852 655.135 482.891 658.135 482.92C659.536 482.942 660.651 482.96 661.498 482.973C662.271 482.991 662.681 483.008 662.701 483.025C662.721 483.043 662.349 483.06 661.614 483.077C660.793 483.091 659.711 483.109 658.35 483.131C655.377 483.159 651.199 483.199 645.986 483.248C635.241 483.298 620.249 483.367 602.835 483.45L602.351 483.451L602.349 483.025C602.345 479.433 602.339 475.682 602.332 471.816C602.331 469.881 602.329 467.918 602.328 465.932C602.328 464.938 602.326 463.938 602.326 462.934V461.422V460.664V460.284V460.094V459.999V459.951V459.928V459.916V459.909C602.214 460.003 603.289 459.063 602.838 459.462C626.093 459.511 647.192 459.555 662.701 459.587H663.069L663.066 459.908C662.984 467.029 662.916 472.819 662.87 476.919C662.831 478.84 662.801 480.363 662.779 481.483C662.751 482.518 662.726 483.047 662.701 483.025Z" fill="#E1E1E1"/>
<path d="M653.23 552.851H675.996V624.704H653.23V552.851Z" fill="#ECECEC"/>
<path d="M629.302 558.602V536.258C629.302 534.555 630.876 533.174 632.82 533.174H696.406C698.348 533.174 699.924 534.555 699.924 536.258V558.602C699.924 560.305 698.348 561.687 696.406 561.687H632.82C630.876 561.687 629.302 560.305 629.302 558.602Z" fill="#ECECEC"/>
<path d="M629.302 558.602C629.372 558.582 629.23 559.269 629.945 560.247C630.31 560.713 630.931 561.228 631.846 561.454C632.745 561.67 633.906 561.517 635.163 561.547C640.283 561.52 647.599 561.482 656.618 561.435C665.692 561.413 676.473 561.387 688.438 561.358C689.934 561.356 691.451 561.354 692.984 561.352C693.75 561.35 694.521 561.35 695.296 561.349L696.457 561.345C696.805 561.345 697.149 561.28 697.476 561.178C698.82 560.758 699.686 559.54 699.53 558.202C699.528 556.8 699.527 555.384 699.525 553.955C699.522 548.239 699.519 542.323 699.518 536.262C699.547 534.9 698.263 533.661 696.738 533.545C695.118 533.514 693.36 533.535 691.697 533.529C688.331 533.526 685.014 533.525 681.755 533.523C675.239 533.515 668.952 533.508 662.962 533.503C656.975 533.49 651.284 533.479 645.955 533.468C643.294 533.462 640.721 533.455 638.249 533.449C637.013 533.445 635.801 533.441 634.617 533.437C634.024 533.436 633.438 533.433 632.857 533.431C632.319 533.426 631.801 533.54 631.335 533.743C630.406 534.159 629.756 534.969 629.616 535.833C629.53 536.701 629.583 537.677 629.561 538.554C629.55 540.342 629.539 542.029 629.53 543.608C629.502 546.752 629.48 549.466 629.46 551.703C629.428 553.888 629.402 555.603 629.383 556.817C629.367 557.372 629.353 557.811 629.344 558.149C629.33 558.448 629.316 558.602 629.302 558.602C629.288 558.602 629.274 558.448 629.26 558.149C629.25 557.811 629.236 557.372 629.221 556.817C629.202 555.603 629.177 553.888 629.144 551.703C629.124 549.466 629.102 546.752 629.074 543.608C629.065 542.029 629.054 540.342 629.043 538.554C629.06 537.644 628.987 536.773 629.076 535.761C629.23 534.749 629.981 533.794 631.071 533.297C631.612 533.051 632.236 532.913 632.857 532.916C633.438 532.914 634.024 532.912 634.617 532.91C635.801 532.906 637.013 532.902 638.249 532.899C640.721 532.892 643.294 532.886 645.955 532.879C651.284 532.868 656.975 532.857 662.962 532.846C668.952 532.839 675.239 532.832 681.755 532.824C685.014 532.823 688.331 532.821 691.697 532.82C693.398 532.828 695.033 532.798 696.823 532.838C698.75 532.983 700.368 534.544 700.329 536.262C700.326 542.323 700.324 548.239 700.321 553.955C700.319 555.384 700.318 556.8 700.316 558.202C700.51 559.677 699.421 561.342 697.742 561.817C697.334 561.945 696.901 562.022 696.468 562.023H695.296C694.521 562.023 693.75 562.022 692.984 562.021C691.451 562.019 689.934 562.016 688.438 562.015C676.473 561.986 665.692 561.96 656.618 561.938C647.599 561.891 640.283 561.852 635.163 561.825C634.531 561.819 633.934 561.814 633.37 561.809C632.82 561.81 632.257 561.8 631.776 561.658C630.803 561.393 630.168 560.825 629.807 560.327C629.449 559.814 629.336 559.358 629.302 559.059C629.268 558.756 629.302 558.602 629.302 558.602Z" fill="#E1E1E1"/>
<path d="M629.302 644.714V622.371C629.302 620.667 630.876 619.286 632.82 619.286H696.406C698.348 619.286 699.924 620.667 699.924 622.371V644.714C699.924 646.418 698.348 647.799 696.406 647.799H632.82C630.876 647.799 629.302 646.418 629.302 644.714Z" fill="#ECECEC"/>
<path d="M629.302 644.714C629.372 644.694 629.23 645.382 629.945 646.36C630.31 646.824 630.931 647.341 631.846 647.567C632.745 647.782 633.906 647.63 635.163 647.66C640.283 647.632 647.599 647.594 656.618 647.546C665.692 647.526 676.473 647.5 688.438 647.471C689.934 647.468 691.451 647.467 692.984 647.464C693.75 647.463 694.521 647.463 695.296 647.461L696.457 647.457C696.805 647.457 697.149 647.393 697.476 647.29C698.82 646.87 699.686 645.653 699.53 644.315C699.528 642.912 699.527 641.496 699.525 640.068C699.522 634.352 699.519 628.436 699.518 622.375C699.547 621.012 698.263 619.774 696.738 619.658C695.118 619.626 693.36 619.648 691.697 619.641C688.331 619.639 685.014 619.637 681.755 619.636C675.239 619.628 668.952 619.621 662.962 619.614C656.975 619.603 651.284 619.592 645.955 619.581C643.294 619.574 640.721 619.567 638.249 619.561C637.013 619.558 635.801 619.554 634.617 619.55C634.024 619.548 633.438 619.545 632.857 619.544C632.319 619.539 631.801 619.652 631.335 619.856C630.406 620.272 629.756 621.082 629.616 621.945C629.53 622.814 629.583 623.788 629.561 624.667C629.55 626.453 629.539 628.14 629.53 629.72C629.502 632.865 629.48 635.578 629.46 637.815C629.428 640.001 629.402 641.715 629.383 642.93C629.367 643.484 629.353 643.923 629.344 644.261C629.33 644.561 629.316 644.714 629.302 644.714C629.288 644.714 629.274 644.561 629.26 644.261C629.25 643.923 629.236 643.484 629.221 642.93C629.202 641.715 629.177 640.001 629.144 637.815C629.124 635.578 629.102 632.865 629.074 629.72C629.065 628.14 629.054 626.453 629.043 624.667C629.06 623.757 628.987 622.885 629.076 621.874C629.23 620.863 629.981 619.907 631.071 619.41C631.612 619.164 632.236 619.026 632.857 619.028C633.438 619.027 634.024 619.024 634.617 619.023C635.801 619.019 637.013 619.015 638.249 619.012C640.721 619.005 643.294 618.998 645.955 618.991C651.284 618.98 656.975 618.969 662.962 618.959C668.952 618.952 675.239 618.945 681.755 618.937C685.014 618.935 688.331 618.934 691.697 618.931C693.398 618.941 695.033 618.911 696.823 618.95C698.75 619.095 700.368 620.656 700.329 622.375C700.326 628.436 700.324 634.352 700.321 640.068C700.319 641.496 700.318 642.912 700.316 644.315C700.51 645.79 699.421 647.455 697.742 647.929C697.334 648.058 696.901 648.135 696.468 648.135L695.296 648.136C694.521 648.136 693.75 648.135 692.984 648.133C691.451 648.132 689.934 648.129 688.438 648.126C676.473 648.098 665.692 648.073 656.618 648.051C647.599 648.003 640.283 647.965 635.163 647.938C634.531 647.932 633.934 647.927 633.37 647.921C632.82 647.923 632.257 647.913 631.776 647.771C630.803 647.505 630.168 646.937 629.807 646.439C629.449 645.926 629.336 645.471 629.302 645.171C629.268 644.869 629.302 644.714 629.302 644.714Z" fill="#E1E1E1"/>
<path d="M680.033 647.391C679.808 647.391 679.627 641.19 679.627 633.542C679.627 625.891 679.808 619.692 680.033 619.692C680.257 619.692 680.438 625.891 680.438 633.542C680.438 641.19 680.257 647.391 680.033 647.391Z" fill="#E1E1E1"/>
<path d="M650.466 647.391C650.242 647.391 650.061 641.19 650.061 633.542C650.061 625.891 650.242 619.692 650.466 619.692C650.691 619.692 650.872 625.891 650.872 633.542C650.872 641.19 650.691 647.391 650.466 647.391Z" fill="#E1E1E1"/>
<path d="M680.033 561.371C679.808 561.371 679.627 555.171 679.627 547.523C679.627 539.872 679.808 533.673 680.033 533.673C680.257 533.673 680.438 539.872 680.438 547.523C680.438 555.171 680.257 561.371 680.033 561.371Z" fill="#E1E1E1"/>
<path d="M650.466 561.371C650.242 561.371 650.061 555.171 650.061 547.523C650.061 539.872 650.242 533.673 650.466 533.673C650.691 533.673 650.872 539.872 650.872 547.523C650.872 555.171 650.691 561.371 650.466 561.371Z" fill="#E1E1E1"/>
</g>
<mask id="mask1_1212_89" style="mask-type:luminance" maskUnits="userSpaceOnUse" x="0" y="0" width="780" height="686">
<path d="M0 0.926302H780V685.007H0V0.926302Z" fill="white"/>
</mask>
<g mask="url(#mask1_1212_89)">
<path d="M115.576 166.353L117.362 161.343C132.427 119.106 172.135 87.0065 221.336 79.193C227.66 78.1887 234.07 77.584 240.512 77.4075C286.886 76.1296 333.442 97.0352 359.87 131.004C375.413 150.98 385.161 175.748 407.812 189.37C437.29 207.098 476.664 199.322 510.841 190.916C545.016 182.508 584.442 174.815 613.834 192.657C632.24 203.832 642.538 223.165 646.77 242.554C657.978 293.89 630.487 347.922 585.633 381.539C540.78 415.156 481.068 430.237 422.242 432.477C339.835 435.611 254.445 413.68 192.989 364.541C131.532 315.402 97.5781 237.667 115.576 166.353Z" fill="#F5F5F5"/>
</g>
<mask id="mask2_1212_89" style="mask-type:luminance" maskUnits="userSpaceOnUse" x="0" y="0" width="780" height="686">
<path d="M0 0.926302H780V685.007H0V0.926302Z" fill="white"/>
</mask>
<g mask="url(#mask2_1212_89)">
<path d="M730.677 647.799C730.677 647.996 578.138 648.155 390.017 648.155C201.829 648.155 49.3235 647.996 49.3235 647.799C49.3235 647.602 201.829 647.443 390.017 647.443C578.138 647.443 730.677 647.602 730.677 647.799Z" fill="#1A2E35"/>
</g>
<path d="M615.506 626.485H533.578V605.51H615.506V626.485Z" fill="#375A64"/>
<mask id="mask3_1212_89" style="mask-type:luminance" maskUnits="userSpaceOnUse" x="0" y="0" width="780" height="686">
<path d="M0 0.926302H780V685.007H0V0.926302Z" fill="white"/>
</mask>
<g mask="url(#mask3_1212_89)">
<path d="M540.134 647.799H514.658C512.715 647.799 511.141 646.418 511.141 644.714V588.947C511.141 587.244 512.715 585.862 514.658 585.862H540.134C542.076 585.862 543.652 587.244 543.652 588.947V644.714C543.652 646.418 542.076 647.799 540.134 647.799Z" fill="#375A64"/>
<path d="M540.134 647.799C540.111 647.737 540.895 647.862 542.011 647.235C542.539 646.915 543.129 646.371 543.387 645.567C543.631 644.779 543.458 643.762 543.493 642.659C543.463 638.168 543.418 631.752 543.363 623.842C543.34 615.884 543.31 606.428 543.277 595.935C543.274 594.623 543.273 593.293 543.27 591.948C543.268 591.276 543.268 590.6 543.266 589.92L543.262 588.902C543.262 588.597 543.188 588.295 543.071 588.009C542.593 586.83 541.204 586.069 539.678 586.207C538.079 586.208 536.465 586.21 534.836 586.211C528.319 586.214 521.573 586.217 514.662 586.218C513.109 586.192 511.697 587.318 511.564 588.656C511.528 590.076 511.553 591.618 511.544 593.077C511.542 596.029 511.541 598.938 511.539 601.796C511.53 607.511 511.522 613.024 511.514 618.278C511.502 623.529 511.489 628.52 511.477 633.194C511.469 635.528 511.461 637.784 511.453 639.953C511.45 641.036 511.446 642.098 511.441 643.138C511.439 643.658 511.436 644.172 511.435 644.68C511.428 645.153 511.558 645.607 511.79 646.016C512.265 646.83 513.188 647.401 514.172 647.524C515.163 647.599 516.274 647.551 517.275 647.572C519.313 647.581 521.236 647.591 523.038 647.599C526.623 647.622 529.716 647.643 532.267 647.661C534.76 647.688 536.714 647.711 538.1 647.726C538.732 647.741 539.232 647.754 539.618 647.762C539.959 647.774 540.134 647.787 540.134 647.799C540.134 647.811 539.959 647.824 539.618 647.836C539.232 647.844 538.732 647.856 538.1 647.87C536.714 647.887 534.76 647.908 532.267 647.937C529.718 647.954 526.623 647.974 523.038 647.997C521.236 648.007 519.313 648.015 517.275 648.026C516.238 648.011 515.244 648.075 514.091 647.997C512.937 647.862 511.848 647.204 511.282 646.247C510.999 645.773 510.843 645.225 510.847 644.68C510.845 644.172 510.842 643.658 510.84 643.138C510.836 642.098 510.831 641.036 510.828 639.953C510.82 637.784 510.812 635.528 510.804 633.194C510.792 628.52 510.779 623.529 510.767 618.278C510.759 613.024 510.751 607.511 510.742 601.796C510.74 598.938 510.739 596.029 510.736 593.077C510.745 591.585 510.712 590.151 510.758 588.581C510.923 586.891 512.703 585.472 514.662 585.507C521.573 585.508 528.319 585.511 534.836 585.513C536.465 585.515 538.079 585.516 539.678 585.517C541.36 585.348 543.259 586.303 543.8 587.775C543.947 588.133 544.034 588.512 544.034 588.893L544.036 589.92C544.036 590.6 544.034 591.276 544.032 591.948C544.031 593.293 544.028 594.623 544.026 595.935C543.993 606.428 543.964 615.884 543.939 623.842C543.884 631.752 543.841 638.168 543.809 642.659C543.803 643.212 543.797 643.737 543.791 644.231C543.792 644.714 543.78 645.208 543.619 645.629C543.316 646.483 542.669 647.04 542.101 647.356C541.516 647.67 540.997 647.769 540.655 647.798C540.31 647.829 540.134 647.799 540.134 647.799Z" fill="#1A2E35"/>
<path d="M638.321 647.799H612.845C610.902 647.799 609.327 646.418 609.327 644.714V588.947C609.327 587.244 610.902 585.862 612.845 585.862H638.321C640.263 585.862 641.839 587.244 641.839 588.947V644.714C641.839 646.418 640.263 647.799 638.321 647.799Z" fill="#375A64"/>
<path d="M638.321 647.799C638.298 647.737 639.082 647.862 640.198 647.235C640.726 646.915 641.316 646.371 641.574 645.567C641.818 644.779 641.645 643.762 641.68 642.659C641.65 638.168 641.605 631.752 641.55 623.842C641.527 615.884 641.497 606.428 641.464 595.935C641.461 594.623 641.46 593.293 641.457 591.948C641.455 591.276 641.455 590.6 641.453 589.92L641.449 588.902C641.449 588.597 641.375 588.295 641.258 588.009C640.779 586.83 639.391 586.069 637.865 586.207C636.266 586.208 634.652 586.21 633.023 586.211C626.505 586.214 619.76 586.217 612.849 586.218C611.295 586.192 609.884 587.318 609.751 588.656C609.715 590.076 609.74 591.618 609.731 593.077C609.729 596.029 609.728 598.938 609.726 601.796C609.717 607.511 609.709 613.024 609.701 618.278C609.689 623.529 609.676 628.52 609.664 633.194C609.656 635.528 609.648 637.784 609.64 639.953C609.637 641.036 609.633 642.098 609.628 643.138C609.626 643.658 609.623 644.172 609.622 644.68C609.615 645.153 609.745 645.607 609.977 646.016C610.452 646.83 611.375 647.401 612.359 647.524C613.35 647.599 614.461 647.551 615.462 647.572C617.5 647.581 619.423 647.591 621.225 647.599C624.81 647.622 627.905 647.643 630.455 647.661C632.947 647.688 634.901 647.711 636.287 647.726C636.918 647.741 637.419 647.754 637.805 647.762C638.146 647.774 638.321 647.787 638.321 647.799C638.321 647.811 638.146 647.824 637.805 647.836C637.419 647.844 636.918 647.856 636.287 647.87C634.901 647.887 632.947 647.908 630.455 647.937C627.905 647.954 624.81 647.974 621.225 647.997C619.423 648.007 617.5 648.015 615.462 648.026C614.425 648.011 613.431 648.075 612.278 647.997C611.124 647.862 610.035 647.204 609.469 646.247C609.186 645.773 609.03 645.225 609.033 644.68C609.032 644.172 609.029 643.658 609.027 643.138C609.023 642.098 609.018 641.036 609.015 639.953C609.007 637.784 608.999 635.528 608.991 633.194C608.979 628.52 608.966 623.529 608.954 618.278C608.946 613.024 608.938 607.511 608.929 601.796C608.927 598.938 608.926 596.029 608.923 593.077C608.932 591.585 608.899 590.151 608.945 588.581C609.11 586.891 610.89 585.472 612.849 585.507C619.76 585.508 626.505 585.511 633.023 585.513C634.652 585.515 636.266 585.516 637.865 585.517C639.547 585.348 641.446 586.303 641.987 587.775C642.134 588.133 642.221 588.512 642.221 588.893L642.222 589.92C642.222 590.6 642.221 591.276 642.219 591.948C642.218 593.293 642.215 594.623 642.213 595.935C642.18 606.428 642.151 615.884 642.126 623.842C642.071 631.752 642.027 638.168 641.996 642.659C641.99 643.212 641.984 643.737 641.978 644.231C641.979 644.714 641.968 645.208 641.806 645.629C641.503 646.483 640.856 647.04 640.288 647.356C639.703 647.67 639.184 647.769 638.842 647.798C638.497 647.829 638.321 647.799 638.321 647.799Z" fill="#1A2E35"/>
<path d="M641.373 603.307C641.373 603.504 634.303 603.663 625.582 603.663C616.859 603.663 609.79 603.504 609.79 603.307C609.79 603.11 616.859 602.951 625.582 602.951C634.303 602.951 641.373 603.11 641.373 603.307Z" fill="#1A2E35"/>
<path d="M641.373 629.238C641.373 629.435 634.303 629.593 625.582 629.593C616.859 629.593 609.79 629.435 609.79 629.238C609.79 629.041 616.859 628.882 625.582 628.882C634.303 628.882 641.373 629.041 641.373 629.238Z" fill="#1A2E35"/>
<path d="M543.292 603.307C543.292 603.504 536.222 603.663 527.502 603.663C518.778 603.663 511.71 603.504 511.71 603.307C511.71 603.11 518.778 602.951 527.502 602.951C536.222 602.951 543.292 603.11 543.292 603.307Z" fill="#1A2E35"/>
<path d="M543.292 629.238C543.292 629.435 536.222 629.593 527.502 629.593C518.778 629.593 511.71 629.435 511.71 629.238C511.71 629.041 518.778 628.882 527.502 628.882C536.222 628.882 543.292 629.041 543.292 629.238Z" fill="#1A2E35"/>
</g>
<mask id="mask4_1212_89" style="mask-type:luminance" maskUnits="userSpaceOnUse" x="0" y="0" width="780" height="686">
<path d="M0 0.926302H780V685.007H0V0.926302Z" fill="white"/>
</mask>
<g mask="url(#mask4_1212_89)">
<path d="M424.384 272.234C424.384 272.234 464.148 280.19 468.289 305.773C472.781 333.54 463.824 389.445 464.941 398.741C466.056 408.039 466.205 415.646 466.205 415.646L546.955 453.544L530.511 472.668C530.511 472.668 458.804 470.181 439.834 457.948C420.865 445.716 416.96 430.547 417.517 416.846C418.075 403.145 417.467 328.281 417.467 328.281L424.384 272.234Z" fill="#C17560"/>
<path d="M451.865 322.584C452.06 322.707 449.008 326.56 445.731 331.563C442.433 336.558 440.16 340.802 439.942 340.718C439.843 340.679 440.286 339.567 441.165 337.825C442.041 336.085 443.372 333.725 445.027 331.207C446.682 328.691 448.345 326.498 449.623 324.962C450.902 323.423 451.777 322.529 451.865 322.584Z" fill="#7C4236"/>
<path d="M664.613 449.237C664.613 465.195 653.872 478.131 640.625 478.131C635.179 478.131 620.901 478.079 620.901 478.079C615.133 472.802 616.636 458.635 616.636 449.237C616.636 440.542 613.601 425.809 618.646 420.512C618.646 420.512 634.594 420.343 640.625 420.343C653.872 420.343 664.613 433.279 664.613 449.237Z" fill="#FF735D"/>
<mask id="mask5_1212_89" style="mask-type:luminance" maskUnits="userSpaceOnUse" x="615" y="420" width="50" height="59">
<path d="M615.73 420.342H664.613V478.132H615.73V420.342Z" fill="white"/>
</mask>
<g mask="url(#mask5_1212_89)">
<g opacity="0.300003">
<path d="M664.613 449.237C664.613 465.195 653.872 478.131 640.625 478.131C635.179 478.131 620.902 478.079 620.902 478.079C615.133 472.802 616.636 458.635 616.636 449.237C616.636 440.542 613.601 425.809 618.646 420.512C618.646 420.512 634.594 420.343 640.625 420.343C653.872 420.343 664.613 433.279 664.613 449.237Z" fill="black"/>
</g>
</g>
<path d="M639.391 449.185C639.391 465.143 631.113 478.079 620.902 478.079C610.691 478.079 602.414 465.143 602.414 449.185C602.414 433.226 610.691 420.29 620.902 420.29C631.113 420.29 639.391 433.226 639.391 449.185Z" fill="#FF735D"/>
<path d="M631.786 459.179H564.665C561.74 459.179 559.368 457.1 559.368 454.534V448.829C559.368 446.264 561.74 444.184 564.665 444.184H631.786C634.711 444.184 637.082 446.264 637.082 448.829V454.534C637.082 457.1 634.711 459.179 631.786 459.179Z" fill="#FF735D"/>
<path d="M625.537 435.819C623.763 433.08 619.491 428.021 619.491 428.021C613.027 422.491 607.293 427.316 607.293 427.316C604.109 425.014 600.242 425.855 597.598 428.437C590.297 425.131 586.339 432.893 586.339 432.893C572.26 432.187 575.368 444.183 575.368 444.183C575.368 444.183 579.338 444.472 579.37 444.755C579.907 449.367 572.449 458.27 572.449 458.27L556.456 472.668L582.21 472.31C586.702 473.709 590.829 473.371 594.158 469.283C601.246 473.854 604.583 468.186 604.583 468.186C611.255 472.117 615.166 466.175 615.166 466.175C615.166 466.175 621.879 468.996 623.969 457.757C624.731 453.656 627.311 438.559 625.537 435.819Z" fill="#C17560"/>
<path d="M589.629 457.417C589.516 457.371 590.254 455.871 591.288 453.401C592.32 450.933 593.613 447.473 594.602 443.567C594.841 442.598 594.997 441.65 594.895 440.761C594.77 439.867 594.483 439.016 594.029 438.29C593.115 436.826 591.696 435.845 590.473 435.126C587.975 433.712 586.268 433.007 586.339 432.894C586.363 432.85 586.805 432.985 587.582 433.278C588.354 433.575 589.473 434.013 590.783 434.702C592.073 435.386 593.63 436.37 594.683 437.971C595.206 438.769 595.539 439.697 595.686 440.688C595.812 441.695 595.641 442.72 595.396 443.716C594.394 447.678 593 451.145 591.823 453.586C590.644 456.027 589.719 457.455 589.629 457.417Z" fill="#7C4236"/>
<path d="M603.483 454.512C603.357 454.472 604.018 452.903 604.68 450.291C605.009 448.904 605.377 447.348 605.776 445.66C606.207 443.924 606.775 442.022 606.823 440.029C606.864 438.054 605.971 436.231 604.834 434.835C603.689 433.418 602.332 432.344 601.21 431.438C598.909 429.668 597.513 428.516 597.597 428.436C597.667 428.373 599.173 429.372 601.585 431.056C602.764 431.924 604.195 432.976 605.441 434.451C606.678 435.909 607.678 437.864 607.636 440.037C607.581 442.166 606.973 444.082 606.505 445.809C606.026 447.532 605.644 449.104 605.238 450.412C604.836 451.721 604.41 452.757 604.084 453.456C603.755 454.156 603.533 454.528 603.483 454.512Z" fill="#7C4236"/>
<path d="M615.204 451.937C615.097 451.908 615.547 450.301 616.362 447.726C616.797 446.374 617.285 444.86 617.814 443.216C618.321 441.538 618.778 439.626 618.315 437.707C617.859 435.785 616.655 434.141 615.348 432.866C614.03 431.584 612.579 430.639 611.337 429.891C608.821 428.421 607.162 427.611 607.231 427.509C607.258 427.466 607.696 427.622 608.467 427.948C609.234 428.276 610.339 428.765 611.651 429.468C612.953 430.177 614.482 431.1 615.9 432.422C617.299 433.734 618.611 435.467 619.111 437.562C619.616 439.673 619.089 441.698 618.536 443.392C617.956 445.099 617.384 446.599 616.911 447.872C615.956 450.41 615.312 451.966 615.204 451.937Z" fill="#7C4236"/>
<path d="M466.438 415.709C466.57 415.914 461.383 417.961 456.43 422.16C451.427 426.314 448.866 430.766 448.636 430.641C448.552 430.604 449.075 429.448 450.259 427.731C451.438 426.015 453.341 423.77 455.869 421.646C458.402 419.525 461.043 417.957 463.051 417.002C465.059 416.04 466.399 415.633 466.438 415.709Z" fill="#7C4236"/>
<path d="M574.221 451.385C574.221 467.343 563.48 480.279 550.233 480.279C544.787 480.279 530.511 480.227 530.511 480.227C524.741 474.95 526.245 460.784 526.245 451.385C526.245 442.69 523.209 427.956 528.254 422.66C528.254 422.66 544.202 422.491 550.233 422.491C563.48 422.491 574.221 435.427 574.221 451.385Z" fill="#FF735D"/>
<mask id="mask6_1212_89" style="mask-type:luminance" maskUnits="userSpaceOnUse" x="525" y="422" width="50" height="59">
<path d="M525.339 422.49H574.22V480.28H525.339V422.49Z" fill="white"/>
</mask>
<g mask="url(#mask6_1212_89)">
<g opacity="0.300003">
<path d="M574.221 451.385C574.221 467.343 563.48 480.279 550.233 480.279C544.787 480.279 530.511 480.227 530.511 480.227C524.741 474.95 526.245 460.784 526.245 451.385C526.245 442.69 523.209 427.956 528.254 422.66C528.254 422.66 544.202 422.491 550.233 422.491C563.48 422.491 574.221 435.427 574.221 451.385Z" fill="black"/>
</g>
</g>
<path d="M548.999 451.333C548.999 467.291 540.722 480.227 530.511 480.227C520.3 480.227 512.022 467.291 512.022 451.333C512.022 435.374 520.3 422.438 530.511 422.438C540.722 422.438 548.999 435.374 548.999 451.333Z" fill="#FF735D"/>
<path d="M546.295 451.333C546.281 451.333 546.264 451.222 546.243 451.004C546.223 450.746 546.201 450.43 546.172 450.044C546.147 449.198 546.019 447.956 545.827 446.362C545.69 445.564 545.538 444.683 545.373 443.726C545.117 442.778 544.947 441.725 544.569 440.636C543.924 438.439 542.952 435.975 541.389 433.477C540.574 432.248 539.666 430.98 538.473 429.842C537.337 428.665 535.882 427.647 534.208 426.93C532.536 426.217 530.561 425.907 528.612 426.231C526.659 426.552 524.831 427.501 523.285 428.755C520.155 431.285 518.054 434.926 516.652 438.81C515.249 442.72 514.611 446.981 514.569 451.33C514.611 455.681 515.248 459.942 516.652 463.853C518.054 467.738 520.155 471.379 523.285 473.91C524.831 475.165 526.661 476.113 528.612 476.434C530.562 476.759 532.537 476.448 534.21 475.735C535.882 475.018 537.339 474 538.475 472.822C539.666 471.684 540.576 470.416 541.389 469.187C542.953 466.689 543.924 464.225 544.569 462.028C544.947 460.94 545.117 459.888 545.373 458.94C545.538 457.981 545.69 457.101 545.827 456.303C546.019 454.708 546.147 453.467 546.172 452.621C546.201 452.234 546.223 451.92 546.243 451.661C546.264 451.443 546.281 451.333 546.295 451.333C546.309 451.333 546.32 451.443 546.326 451.661C546.329 451.921 546.332 452.237 546.335 452.626C546.363 453.475 546.287 454.724 546.142 456.333C546.045 457.134 545.9 458.023 545.755 458.997C545.52 459.956 545.37 461.022 545.009 462.127C544.399 464.356 543.456 466.864 541.893 469.429C541.078 470.692 540.164 471.999 538.944 473.188C537.782 474.411 536.275 475.494 534.5 476.267C532.729 477.039 530.59 477.392 528.48 477.05C526.366 476.712 524.41 475.704 522.781 474.397C519.488 471.752 517.337 468.023 515.892 464.062C514.451 460.075 513.798 455.748 513.756 451.33C513.8 446.913 514.452 442.586 515.894 438.601C517.338 434.641 519.489 430.911 522.781 428.268C524.408 426.962 526.364 425.953 528.48 425.615C530.589 425.273 532.728 425.626 534.5 426.398C536.273 427.171 537.78 428.253 538.943 429.478C540.162 430.665 541.078 431.972 541.893 433.235C543.456 435.8 544.398 438.308 545.009 440.538C545.37 441.642 545.52 442.708 545.755 443.667C545.9 444.641 546.044 445.53 546.142 446.332C546.287 447.941 546.363 449.19 546.335 450.04C546.332 450.428 546.329 450.744 546.326 451.004C546.32 451.222 546.309 451.333 546.295 451.333Z" fill="#1A2E35"/>
<path d="M529.967 454.297L528.853 454.367L528.998 456.12L527.457 456.217L527.312 454.464L523.633 454.695L523.527 453.394L526.313 447.893L527.973 447.789L525.397 453.002L527.23 452.885L527.104 451.322L528.597 451.229L528.725 452.791L529.837 452.723L529.967 454.297Z" fill="#1A2E35"/>
<path d="M532.951 453.341L532.291 454.271L532.426 455.905L530.905 455.999L530.181 447.147L531.702 447.051L532.112 452.063L534.126 449.346L535.94 449.231L533.978 452.09L536.661 455.638L534.817 455.754L532.951 453.341Z" fill="#1A2E35"/>
<path d="M364.444 99.0748C372.024 93.8676 372.509 83.2425 367.341 76.1171C362.173 68.9917 352.808 64.972 343.414 63.1209C328.876 60.2573 312.214 62.3246 301.696 71.5816C291.18 80.8386 289.879 98.1021 301.401 106.388C294.754 106.843 287.736 107.412 282.324 110.829C276.914 114.245 274.129 121.569 278.377 126.074C283.218 131.207 292.517 129.282 299.614 126.91C294.948 129.499 294.219 135.748 297.275 139.782C300.333 143.814 306.155 145.714 311.676 145.657C317.196 145.601 322.505 143.866 327.567 141.935" fill="#1A2E35"/>
<path d="M341.24 101.061C343.981 98.1815 346.789 95.2604 350.4 93.2479C354.01 91.2367 358.612 90.2406 362.628 91.5322C364.518 92.1396 366.32 93.4011 366.667 95.14C367.013 96.879 365.197 98.8724 363.244 98.4428L362.763 98.6986C357.711 101.48 352.595 104.173 347.422 106.776C346.12 107.432 344.772 108.095 343.282 108.27C341.794 108.445 340.114 108.021 339.312 106.906C337.991 105.063 339.649 102.733 341.24 101.061Z" fill="#FF735D"/>
<path d="M330.534 112.531C348.167 98.9299 369.575 92.7307 392.805 95.7502C405.909 97.455 410.87 100.621 419.861 104.211C428.855 107.801 436.513 113.461 440.811 121.264C445.917 130.532 449.767 140.64 449.127 150.917C448.467 161.474 447.8 172.101 444.948 182.374C442.096 192.646 436.901 202.656 428.326 210.088L397.282 210.313C380.521 208.396 351.86 222.911 336.25 217.224C320.641 211.538 310.504 186.027 308.392 170.709C305.573 150.263 312.902 126.132 330.534 112.531Z" fill="#1A2E35"/>
<path d="M388.55 257.312C390.097 247.995 391.934 236.3 391.927 236.344C391.927 236.344 416.982 237.531 428.991 210.856C434.963 197.59 439.886 174.89 443.229 156.204C446.239 139.382 434.236 114.145 410.602 110.645L400.294 108.051L357.42 116.248C351.561 115.664 346.165 119.109 345.001 124.18L320.568 249.325L339.235 287.092L385.452 271.39L388.55 257.312Z" fill="#C17560"/>
<path d="M382.903 197.528C383.396 196.103 384.563 194.947 385.909 194.232C388.6 192.803 392.076 193.13 394.31 195.022C396.546 196.914 397.4 200.254 396.377 203.094C394.641 204.596 392.257 205.435 389.825 205.269C389.446 205.243 389.07 205.201 388.696 205.138C386.886 204.834 385.137 204.027 383.97 202.651C382.803 201.274 382.295 199.288 382.903 197.528Z" fill="#7C4236"/>
<path d="M429.484 176.946C429.085 178.834 426.933 180.094 424.679 179.764C422.428 179.436 420.921 177.643 421.32 175.755C421.718 173.869 423.871 172.606 426.121 172.934C428.376 173.263 429.883 175.059 429.484 176.946Z" fill="#1A2E35"/>
<path d="M434.263 164.488C433.645 164.854 431.086 162.269 426.732 161.431C422.396 160.54 418.705 161.881 418.353 161.321C418.172 161.069 418.896 160.335 420.509 159.718C422.101 159.101 424.655 158.696 427.362 159.232C430.068 159.774 432.128 161.094 433.212 162.243C434.321 163.405 434.563 164.33 434.263 164.488Z" fill="#1A2E35"/>
<path d="M400.357 190.601C400.391 190.381 403.199 190.497 407.706 190.86C408.843 190.975 409.945 190.986 410.3 190.358C410.74 189.705 410.542 188.564 410.29 187.326C409.842 184.765 409.375 182.079 408.882 179.266C406.996 167.813 405.892 158.482 406.418 158.421C406.945 158.358 408.903 167.59 410.79 179.043C411.229 181.862 411.65 184.55 412.048 187.119C412.188 188.31 412.592 189.707 411.655 191.057C411.171 191.727 410.222 192.095 409.467 192.126C408.706 192.178 408.079 192.067 407.522 191.989C403.059 191.337 400.318 190.822 400.357 190.601Z" fill="#1A2E35"/>
<path d="M391.927 236.343C391.927 236.343 370.413 233.411 352.204 218.241C352.204 218.241 358.599 239.598 390.81 243.156L391.927 236.343Z" fill="#7C4236"/>
<path d="M386.884 190.747C387.6 190.848 386.561 194.992 389.859 198.719C393.146 202.456 398.299 202.97 398.189 203.557C398.189 203.829 396.865 204.143 394.728 203.78C392.626 203.437 389.731 202.256 387.714 199.977C385.703 197.693 385.252 195.081 385.522 193.351C385.781 191.584 386.567 190.66 386.884 190.747Z" fill="#1A2E35"/>
<path d="M435.308 156.726C434.341 157.515 431.166 156.243 427.202 155.768C423.255 155.182 419.784 155.564 419.142 154.559C418.864 154.074 419.519 153.249 421.106 152.575C422.672 151.902 425.188 151.484 427.909 151.847C430.626 152.214 432.879 153.268 434.132 154.321C435.408 155.379 435.74 156.336 435.308 156.726Z" fill="#1A2E35"/>
<path d="M380.109 168.542C379.639 170.418 381.06 172.311 383.285 172.778C385.503 173.244 387.687 172.106 388.157 170.232C388.626 168.357 387.204 166.46 384.987 165.995C382.762 165.528 380.578 166.668 380.109 168.542Z" fill="#1A2E35"/>
<path d="M375.122 154.389C375.529 154.936 379.034 153.43 383.416 154.143C387.806 154.801 390.609 157.296 391.183 156.901C391.461 156.731 391.121 155.806 389.909 154.687C388.716 153.575 386.544 152.331 383.811 151.902C381.076 151.478 378.596 151.991 377.087 152.68C375.549 153.371 374.916 154.14 375.122 154.389Z" fill="#1A2E35"/>
<path d="M380.086 142.433C380.768 143.444 384.34 143.083 388.415 143.693C392.511 144.191 395.804 145.486 396.787 144.7C397.227 144.312 396.867 143.35 395.535 142.281C394.224 141.22 391.884 140.148 389.076 139.765C386.267 139.386 383.68 139.787 382.08 140.456C380.454 141.122 379.794 141.946 380.086 142.433Z" fill="#1A2E35"/>
<path d="M341.632 171.862C342.149 169.802 340.664 164.418 338.425 163.649C332.449 161.597 321.178 159.859 317.58 173.63C312.665 192.454 335.229 192.9 335.408 192.368C335.547 191.952 339.851 178.977 341.632 171.862Z" fill="#C17560"/>
<path d="M331.282 184.302C331.204 184.223 330.848 184.457 330.151 184.584C329.469 184.707 328.363 184.666 327.341 184.072C325.263 182.887 324.179 179.347 324.962 175.933C325.354 174.208 326.189 172.659 327.234 171.447C328.249 170.2 329.516 169.442 330.705 169.496C331.9 169.493 332.552 170.255 332.677 170.837C332.828 171.421 332.592 171.77 332.698 171.824C332.745 171.883 333.24 171.601 333.271 170.79C333.28 170.397 333.145 169.903 332.733 169.44C332.315 168.969 331.606 168.63 330.791 168.545C329.109 168.314 327.271 169.349 326.123 170.679C324.883 171.998 323.898 173.73 323.457 175.666C322.604 179.487 323.891 183.481 326.789 184.892C328.207 185.54 329.572 185.394 330.338 185.08C331.124 184.749 331.347 184.351 331.282 184.302Z" fill="#7C4236"/>
<path d="M337.531 163.576L342.097 169.386C369.651 152.86 425.568 109.589 422.412 112.193C422.412 112.193 407.219 103.951 389.031 104.032C370.841 104.111 335.822 107.016 332.891 125.389C329.958 143.763 337.531 163.576 337.531 163.576Z" fill="#1A2E35"/>
<path d="M306.813 154.811C306.778 154.796 306.964 154.435 307.352 153.759C307.745 153.086 308.404 152.124 309.396 150.975C311.376 148.69 314.898 145.718 320.143 143.344C325.333 140.878 332.194 139.245 339.839 138.29C347.482 137.268 355.962 136.846 364.558 134.986C373.186 133.247 381.095 130.54 387.965 127.565C394.823 124.55 400.64 121.234 405.27 118.163C409.902 115.089 413.373 112.294 415.729 110.329C416.818 109.388 417.702 108.625 418.398 108.023C419.014 107.499 419.351 107.233 419.379 107.256C419.409 107.28 419.128 107.589 418.563 108.158C417.992 108.719 417.175 109.571 416.039 110.6C413.769 112.658 410.359 115.548 405.756 118.716C401.154 121.881 395.33 125.289 388.43 128.38C381.521 131.426 373.537 134.19 364.815 135.947C356.109 137.828 347.574 138.225 339.988 139.191C332.384 140.092 325.646 141.626 320.505 143.966C315.315 146.216 311.791 149.04 309.738 151.214C307.689 153.414 306.919 154.864 306.813 154.811Z" fill="#375A64"/>
<path d="M312.56 158.72C312.56 158.72 312.635 157.13 314.184 154.685C315.682 152.252 318.908 149.121 324.02 146.911C329.106 144.601 335.915 143.705 343.286 143.313C350.68 142.965 358.753 142.321 366.951 140.312C375.132 138.326 382.657 135.574 389.042 132.363C395.455 129.186 400.802 125.699 405.017 122.507C409.274 119.342 412.286 116.378 414.42 114.38C415.37 113.407 416.144 112.614 416.759 111.983C417.305 111.441 417.606 111.166 417.637 111.187C417.668 111.207 417.426 111.523 416.938 112.106C416.364 112.77 415.64 113.604 414.754 114.631C412.712 116.713 409.768 119.772 405.544 123.031C401.36 126.317 396.009 129.901 389.556 133.154C383.128 136.443 375.526 139.256 367.246 141.266C358.965 143.299 350.718 143.926 343.353 144.22C336.002 144.563 329.347 145.377 324.368 147.539C319.351 149.61 316.137 152.568 314.563 154.879C312.936 157.2 312.704 158.763 312.56 158.72Z" fill="#375A64"/>
<path d="M252.609 331.92C253.48 333.398 253.48 351.624 257.413 372.074C261.345 392.524 281.343 434.268 281.343 434.268L277.211 462.604L450.934 480.006L430.028 430.95L432.321 384.75C432.321 384.75 445.616 371.829 439.998 337.339C434.381 302.849 426.248 273.237 426.248 273.237L412.28 268.011L394.437 262.208L327.773 243.902L291.276 240.112L256.289 303.343L252.609 331.92Z" fill="#C17560"/>
<path d="M263.693 394.036C263.693 394.036 276.481 386.101 307.215 385.516C337.949 384.929 428.491 398.289 428.491 398.289L431.723 387.844C431.723 387.844 453.643 358.572 437.675 324.813C420.65 288.819 426.472 272.426 426.472 272.426L412.281 268.01C412.281 268.01 398.057 292.587 385.934 298.541C372.258 305.261 347.095 304.946 324.919 279.457C309.319 261.526 309.056 241.381 309.056 241.381L292.373 240.113C292.373 240.113 288.507 277.992 280.155 295.571C271.805 313.149 250.688 349.92 250.688 349.92C250.688 349.92 259.59 389.081 263.693 394.036Z" fill="#69B99D"/>
<path d="M275.39 462.66C274.267 465.125 256.29 507.498 254.042 541.988C251.794 576.478 251.232 619.591 259.659 647.799H359.098C359.098 647.799 367.383 585.452 370.193 582.496C373.003 579.54 375.811 578.607 376.935 589.913C378.059 601.218 374.829 647.799 374.829 647.799H471.482C471.482 647.799 474.268 570.268 472.02 551.2C470.598 539.122 466.018 519.271 462.851 506.343C460.871 498.26 458.157 490.334 454.718 482.637L443.452 457.416L275.39 462.66Z" fill="#1A2E35"/>
<path d="M450.934 474.166C450.934 474.179 450.775 474.192 450.463 474.206C450.107 474.217 449.652 474.232 449.081 474.251C447.809 474.276 446.031 474.31 443.767 474.354C439.153 474.407 432.478 474.573 424.233 474.827C407.742 475.324 384.988 476.546 359.868 478.086C334.737 479.628 311.96 480.77 295.454 481.14C287.201 481.329 280.521 481.418 275.905 481.386C273.642 481.372 271.862 481.363 270.59 481.355C270.019 481.345 269.564 481.335 269.208 481.329C268.896 481.319 268.737 481.308 268.737 481.296C268.737 481.283 268.896 481.27 269.208 481.256C269.564 481.245 270.019 481.23 270.589 481.211C271.86 481.188 273.64 481.152 275.902 481.108C280.515 481.055 287.19 480.889 295.435 480.636C311.927 480.138 334.683 478.918 359.811 477.376C384.934 475.834 407.708 474.692 424.214 474.324C432.467 474.133 439.148 474.045 443.764 474.076C446.029 474.09 447.809 474.099 449.081 474.107C449.652 474.118 450.107 474.127 450.463 474.133C450.775 474.143 450.934 474.154 450.934 474.166Z" fill="#375A64"/>
<path d="M285.817 481.296C285.831 481.299 285.806 481.445 285.747 481.727C285.675 482.046 285.582 482.458 285.465 482.975C285.187 484.116 284.797 485.718 284.301 487.758C283.774 489.831 283.148 492.369 282.518 495.333C281.877 498.295 281.058 501.654 280.376 505.403C280.011 507.275 279.63 509.234 279.232 511.274C278.839 513.317 278.526 515.455 278.148 517.66C277.357 522.069 276.758 526.808 276.073 531.788C274.866 541.765 273.891 552.766 273.484 564.339C273.139 575.917 273.403 586.952 273.994 596.971C274.378 601.978 274.682 606.739 275.223 611.176C275.474 613.396 275.66 615.546 275.939 617.602C276.225 619.657 276.499 621.63 276.761 623.514C277.233 627.287 277.889 630.672 278.381 633.656C278.855 636.644 279.362 639.201 279.797 641.29C280.2 643.345 280.516 644.96 280.741 646.109C280.835 646.63 280.908 647.045 280.966 647.366C281.012 647.65 281.03 647.796 281.016 647.799C281.002 647.801 280.958 647.659 280.885 647.38C280.807 647.063 280.707 646.652 280.58 646.136C280.32 644.993 279.953 643.386 279.485 641.34C279.003 639.257 278.449 636.704 277.931 633.719C277.398 630.738 276.701 627.353 276.192 623.579C275.913 621.694 275.621 619.72 275.317 617.664C275.019 615.606 274.819 613.455 274.552 611.232C273.982 606.791 273.651 602.023 273.247 597.01C272.613 586.974 272.326 575.918 272.671 564.319C273.078 552.725 274.078 541.703 275.329 531.716C276.036 526.729 276.662 521.985 277.482 517.574C277.875 515.366 278.203 513.228 278.615 511.185C279.03 509.145 279.429 507.186 279.811 505.314C280.529 501.567 281.388 498.211 282.073 495.254C282.746 492.293 283.416 489.761 283.992 487.698C284.552 485.669 284.992 484.076 285.306 482.942C285.455 482.432 285.574 482.025 285.667 481.711C285.753 481.433 285.803 481.293 285.817 481.296Z" fill="white"/>
<path d="M277.21 482.158C277.224 482.161 277.201 482.306 277.142 482.587C277.07 482.905 276.978 483.314 276.862 483.829C276.588 484.964 276.201 486.558 275.71 488.587C275.187 490.649 274.564 493.175 273.95 496.126C273.324 499.074 272.512 502.415 271.855 506.148C271.502 508.01 271.131 509.961 270.746 511.991C270.36 514.024 270.069 516.153 269.705 518.349C268.945 522.738 268.384 527.455 267.744 532.414C266.624 542.344 265.765 553.294 265.484 564.809C265.267 576.329 265.652 587.303 266.342 597.266C266.768 602.242 267.123 606.976 267.693 611.387C267.961 613.593 268.161 615.731 268.459 617.773C268.757 619.816 269.041 621.778 269.314 623.651C269.808 627.402 270.476 630.768 270.975 633.734C271.462 636.704 271.973 639.248 272.407 641.325C272.809 643.37 273.126 644.975 273.352 646.117C273.446 646.636 273.521 647.048 273.579 647.368C273.624 647.651 273.641 647.796 273.627 647.799C273.614 647.802 273.569 647.661 273.496 647.383C273.418 647.066 273.318 646.658 273.192 646.146C272.93 645.008 272.563 643.41 272.095 641.375C271.615 639.304 271.056 636.766 270.527 633.798C269.984 630.835 269.276 627.471 268.744 623.719C268.456 621.845 268.151 619.883 267.836 617.839C267.521 615.795 267.306 613.656 267.023 611.447C266.423 607.032 266.041 602.292 265.594 597.308C264.863 587.332 264.454 576.337 264.671 564.795C264.953 553.26 265.838 542.289 267 532.345C267.661 527.38 268.248 522.657 269.037 518.265C269.416 516.068 269.724 513.938 270.128 511.905C270.53 509.873 270.919 507.924 271.288 506.06C271.983 502.329 272.836 498.991 273.505 496.046C274.164 493.099 274.831 490.581 275.401 488.527C275.956 486.509 276.393 484.925 276.703 483.796C276.851 483.288 276.97 482.883 277.06 482.57C277.146 482.295 277.196 482.156 277.21 482.158Z" fill="white"/>
<path d="M443.501 459.179C443.449 459.198 443.028 458.432 442.306 457.027C441.548 455.511 440.537 453.493 439.312 451.043C436.811 445.971 433.401 438.93 429.654 431.088L429.626 431.029L429.623 430.965C429.607 430.635 429.59 430.281 429.573 429.924C429.163 421.191 428.835 413.284 428.64 407.56C428.562 404.784 428.498 402.495 428.45 400.779C428.445 400.047 428.442 399.44 428.439 398.934C428.445 398.512 428.462 398.289 428.49 398.289C428.518 398.288 428.556 398.508 428.603 398.928C428.648 399.432 428.701 400.039 428.765 400.768C428.879 402.481 429.03 404.766 429.214 407.539C429.556 413.258 429.974 421.162 430.386 429.894C430.401 430.251 430.418 430.606 430.434 430.936L430.403 430.813C434.142 438.658 437.468 445.73 439.833 450.851C440.963 453.337 441.892 455.385 442.591 456.922C443.226 458.358 443.552 459.16 443.501 459.179Z" fill="#7C4236"/>
<path d="M425.53 332.789C425.486 332.982 418.926 332.012 410.88 330.621C402.829 329.231 396.341 327.948 396.384 327.754C396.428 327.561 402.986 328.532 411.036 329.922C419.084 331.312 425.574 332.596 425.53 332.789Z" fill="white"/>
<path d="M205.446 577.665C205.446 592.005 192.19 603.632 175.84 603.632C159.488 603.632 146.233 592.005 146.233 577.665C146.233 563.324 159.488 551.699 175.84 551.699C192.19 551.699 205.446 563.324 205.446 577.665Z" fill="#FF735D"/>
<mask id="mask7_1212_89" style="mask-type:luminance" maskUnits="userSpaceOnUse" x="146" y="551" width="60" height="53">
<path d="M146.233 551.7H205.446V603.631H146.233V551.7Z" fill="white"/>
</mask>
<g mask="url(#mask7_1212_89)">
<g opacity="0.300003">
<path d="M205.446 577.665C205.446 592.005 192.19 603.632 175.84 603.632C159.488 603.632 146.233 592.005 146.233 577.665C146.233 563.324 159.488 551.699 175.84 551.699C192.19 551.699 205.446 563.324 205.446 577.665Z" fill="black"/>
</g>
</g>
<path d="M214.875 577.665C214.875 592.005 201.62 603.632 185.269 603.632C168.918 603.632 155.662 592.005 155.662 577.665C155.662 563.324 168.918 551.699 185.269 551.699C201.62 551.699 214.875 563.324 214.875 577.665Z" fill="#FF735D"/>
<path d="M168.685 529.388C168.685 530.363 168.657 547.323 165.321 556.832C161.984 566.341 160.317 576.093 161.707 579.75C163.097 583.407 178.664 596.816 182.278 598.035C185.893 599.254 217.584 596.816 217.584 596.816L228.425 564.39C228.425 564.39 215.915 548.786 210.635 540.496C205.352 532.206 200.577 522.557 201.158 516.776C201.738 510.996 168.685 529.388 168.685 529.388Z" fill="#C17560"/>
<path d="M240.699 580.15C240.699 594.491 227.443 606.116 211.091 606.116C194.741 606.116 181.486 594.491 181.486 580.15C181.486 565.81 194.741 554.184 211.091 554.184C227.443 554.184 240.699 565.81 240.699 580.15Z" fill="#FF735D"/>
<path d="M275.951 240.428C267.191 241.412 258.713 243.966 251.31 248.19C239.248 255.073 224.672 268.292 219.455 293.05C209.97 338.067 204.949 377.701 199.37 387.977C193.792 398.252 182.074 417.825 180.959 438.376C179.844 458.928 168.685 529.388 168.685 529.388H197.696C197.696 529.388 224.477 456.48 234.519 432.994C244.562 409.507 241.95 408.931 248.644 386.912C255.34 364.893 269.277 322.545 269.277 322.545L286.002 277.824L291.276 240.113L275.951 240.428Z" fill="#C17560"/>
<path d="M270.796 278.835C270.894 278.803 271.562 280.067 272.449 282.18C273.331 284.292 274.407 287.269 275.199 290.643C275.987 294.02 276.337 297.128 276.474 299.375C276.608 301.624 276.561 303.017 276.457 303.021C276.337 303.025 276.181 301.642 275.901 299.417C275.618 297.193 275.182 294.125 274.404 290.787C273.621 287.451 272.643 284.483 271.905 282.339C271.161 280.197 270.683 278.872 270.796 278.835Z" fill="#7C4236"/>
<mask id="mask8_1212_89" style="mask-type:luminance" maskUnits="userSpaceOnUse" x="181" y="554" width="60" height="53">
<path d="M181.486 554.184H240.699V606.116H181.486V554.184Z" fill="white"/>
</mask>
<g mask="url(#mask8_1212_89)">
<g opacity="0.300003">
<path d="M240.699 580.15C240.699 594.491 227.443 606.116 211.091 606.116C194.741 606.116 181.486 594.491 181.486 580.15C181.486 565.81 194.741 554.184 211.091 554.184C227.443 554.184 240.699 565.81 240.699 580.15Z" fill="black"/>
</g>
</g>
<path d="M251.117 580.15C251.117 594.491 237.862 606.116 221.51 606.116C205.16 606.116 191.904 594.491 191.904 580.15C191.904 565.81 205.16 554.184 221.51 554.184C237.862 554.184 251.117 565.81 251.117 580.15Z" fill="#FF735D"/>
<path d="M222.518 582.834L221.148 582.918L221.308 584.85L219.407 584.969L219.25 583.039L214.72 583.323L214.604 581.891L218.091 575.807L220.133 575.678L216.91 581.441L219.169 581.3L219.028 579.579L220.866 579.463L221.006 581.184L222.376 581.097L222.518 582.834Z" fill="#1A2E35"/>
<path d="M226.193 581.757L225.373 582.786L225.519 584.585L223.646 584.702L222.849 574.953L224.722 574.835L225.173 580.354L227.682 577.344L229.915 577.205L227.469 580.368L230.734 584.256L228.463 584.4L226.193 581.757Z" fill="#1A2E35"/>
<path d="M246.307 580.15C246.173 580.161 246.338 578.21 245.377 574.874C244.93 573.204 244.023 571.232 242.607 569.147C241.18 567.069 239.127 564.902 236.339 563.065C233.56 561.245 230.061 559.699 226.026 559.079C222.016 558.481 217.496 558.595 213.192 560.034C211.026 560.695 208.937 561.694 207.019 562.954C206.026 563.552 205.161 564.3 204.253 565.02C203.432 565.817 202.57 566.597 201.863 567.503C198.861 571.005 197.17 575.508 197.12 580.147C197.169 584.788 198.86 589.292 201.861 592.796C202.568 593.7 203.431 594.482 204.251 595.279C205.159 595.999 206.025 596.747 207.017 597.345C208.936 598.607 211.026 599.605 213.192 600.266C217.496 601.705 222.018 601.819 226.027 601.221C230.063 600.6 233.562 599.055 236.34 597.234C239.128 595.398 241.18 593.23 242.608 591.153C244.023 589.066 244.93 587.095 245.379 585.426C246.337 582.09 246.173 580.139 246.307 580.15C246.321 580.15 246.329 580.269 246.329 580.503C246.323 580.778 246.317 581.12 246.309 581.54C246.309 581.998 246.281 582.562 246.154 583.223C246.053 583.885 245.956 584.654 245.685 585.493C245.278 587.195 244.404 589.211 242.998 591.357C241.582 593.492 239.518 595.729 236.69 597.635C233.869 599.525 230.292 601.138 226.15 601.801C222.037 602.443 217.382 602.349 212.937 600.883C210.7 600.21 208.541 599.187 206.555 597.892C205.53 597.277 204.632 596.509 203.694 595.766C202.844 594.947 201.953 594.142 201.22 593.209C198.113 589.597 196.354 584.941 196.309 580.147C196.356 575.355 198.114 570.699 201.222 567.088C201.955 566.157 202.846 565.352 203.696 564.533C204.633 563.791 205.532 563.022 206.557 562.408C208.541 561.112 210.7 560.09 212.937 559.417C217.382 557.953 222.035 557.857 226.149 558.498C230.291 559.163 233.868 560.776 236.688 562.664C239.517 564.569 241.58 566.808 242.997 568.944C244.402 571.087 245.278 573.105 245.685 574.806C245.956 575.645 246.053 576.415 246.154 577.077C246.281 577.737 246.309 578.302 246.309 578.76C246.317 579.18 246.323 579.522 246.329 579.797C246.329 580.031 246.321 580.15 246.307 580.15Z" fill="#1A2E35"/>
</g>
</svg>
